<svg xmlns="http://www.w3.org/2000/svg" viewBox="0 0 64 64">
  <defs>
    <linearGradient id="g" x1="0%" y1="0%" x2="100%" y2="100%">
      <stop offset="0%" stop-color="#103f91" />
      <stop offset="100%" stop-color="#2bb0b3" />
    </linearGradient>
  </defs>
  <rect width="64" height="64" rx="16" fill="url(#g)" />
  <path d="M16 18h18c7.18 0 13 5.82 13 13s-5.82 13-13 13H27v10H16V18zm11 16h7c1.66 0 3-1.34 3-3s-1.34-3-3-3h-7v6z" fill="#f8fbff" />
  <path d="M41 54H29V43h12c3.31 0 6-2.69 6-6 0-.95-.22-1.85-.61-2.65C50.31 35.96 53 40.19 53 45c0 4.97-4.03 9-9 9z" fill="#dff6ff" opacity=".86" />
</svg>
